<?xml version="1.0" encoding="iso-8859-1"?>
<!-- Generator: Adobe Illustrator 19.0.0, SVG Export Plug-In . SVG Version: 6.00 Build 0)  -->
<svg version="1.1" id="Layer_1" xmlns="http://www.w3.org/2000/svg" xmlns:xlink="http://www.w3.org/1999/xlink" x="0px" y="0px"
	 viewBox="0 0 512 512" style="enable-background:new 0 0 512 512;" xml:space="preserve">
<path style="fill:#00A8E1;" d="M107.527,512H462.66c15.975,0,29.044-13.07,29.044-29.043V29.043C491.704,13.07,478.634,0,462.66,0
	H49.34C33.366,0,20.296,13.07,20.296,29.043v395.725L107.527,512z"/>
<path style="fill:#0071CE;" d="M107.527,512v-64.877c0-12.294-10.059-22.353-22.353-22.353H20.296L107.527,512z"/>
<rect x="87.223" y="51.838" style="fill:#0055B8;" width="337.547" height="46.839"/>
<g>
	<rect x="167.516" y="352.569" style="fill:#333E48;" width="131.55" height="46.839"/>
	<path style="fill:#333E48;" d="M424.768,161.557h-31.303c-4.629,0-8.383-3.752-8.383-8.383c0-4.631,3.753-8.383,8.383-8.383h31.303
		c4.629,0,8.383,3.752,8.383,8.383C433.151,157.805,429.397,161.557,424.768,161.557z"/>
	<path style="fill:#333E48;" d="M424.768,220.262h-31.303c-4.629,0-8.383-3.752-8.383-8.383s3.753-8.383,8.383-8.383h31.303
		c4.629,0,8.383,3.752,8.383,8.383S429.397,220.262,424.768,220.262z"/>
	<path style="fill:#333E48;" d="M424.768,278.969h-31.303c-4.629,0-8.383-3.752-8.383-8.383c0-4.631,3.753-8.383,8.383-8.383h31.303
		c4.629,0,8.383,3.752,8.383,8.383C433.151,275.216,429.397,278.969,424.768,278.969z"/>
	<path style="fill:#333E48;" d="M350.32,161.557H87.224c-4.629,0-8.383-3.752-8.383-8.383c0-4.631,3.753-8.383,8.383-8.383h263.095
		c4.629,0,8.383,3.752,8.383,8.383C358.703,157.805,354.949,161.557,350.32,161.557z"/>
	<path style="fill:#333E48;" d="M350.32,220.262H87.224c-4.629,0-8.383-3.752-8.383-8.383s3.753-8.383,8.383-8.383h263.095
		c4.629,0,8.383,3.752,8.383,8.383C358.703,216.51,354.949,220.262,350.32,220.262z"/>
	<path style="fill:#333E48;" d="M350.32,278.969H87.224c-4.629,0-8.383-3.752-8.383-8.383c0-4.631,3.753-8.383,8.383-8.383h263.095
		c4.629,0,8.383,3.752,8.383,8.383C358.703,275.216,354.949,278.969,350.32,278.969z"/>
</g>
<path style="fill:#FFFFFF;" d="M388.476,340.901c4.135,0,7.419,3.277,7.419,7.416v1.995c7.7,1.142,14.55,3.425,20.682,6.848
	c2.708,1.569,5.132,4.276,5.132,8.557c0,5.421-4.28,9.556-9.7,9.556c-1.712,0-3.421-0.427-4.99-1.284
	c-3.993-2.137-7.986-3.848-11.837-4.846v21.677c21.678,5.847,30.95,14.694,30.95,30.666c0,15.973-12.268,26.244-30.237,28.243v7.558
	c0,4.138-3.284,7.418-7.419,7.418c-4.138,0-7.416-3.28-7.416-7.418v-7.701c-10.127-1.284-19.686-4.85-28.098-9.984
	c-2.996-1.856-4.853-4.709-4.853-8.558c0-5.564,4.281-9.701,9.843-9.701c1.856,0,3.853,0.715,5.564,1.856
	c5.99,3.849,11.696,6.56,18.257,7.988v-22.679c-20.541-5.564-30.668-13.408-30.668-30.382c0-15.69,11.981-26.245,29.954-28.102
	v-1.708C381.061,344.177,384.339,340.901,388.476,340.901z M381.775,387.11v-19.255c-6.847,0.999-9.842,4.421-9.842,8.985
	C371.932,381.262,373.929,384.259,381.775,387.11z M395.181,412.074v19.823c6.7-0.997,10.127-4.138,10.127-9.271
	C405.308,417.92,402.882,414.783,395.181,412.074z"/>
<g>
</g>
<g>
</g>
<g>
</g>
<g>
</g>
<g>
</g>
<g>
</g>
<g>
</g>
<g>
</g>
<g>
</g>
<g>
</g>
<g>
</g>
<g>
</g>
<g>
</g>
<g>
</g>
<g>
</g>
</svg>
